<svg width="651" height="155" viewBox="0 0 651 155" fill="#ffffff" xmlns="http://www.w3.org/2000/svg">
<path d="M183.4 111.099V85.8992H197.4C202.6 85.8992 207.1 85.0992 210.8 83.3992C214.5 81.6992 217.4 79.2992 219.3 76.0992C221.2 72.8992 222.2 69.0992 222.2 64.6992C222.2 60.4992 221.2 56.6992 219.3 53.3992C217.3 50.0992 214.5 47.4992 210.7 45.6992C206.9 43.8992 202.5 42.8992 197.3 42.8992H171.2V110.999H183.4V111.099ZM197.4 76.1992H183.4V52.7992H197.4C200.3 52.7992 202.7 53.3992 204.6 54.4992C206.5 55.5992 207.9 57.0992 208.8 58.8992C209.7 60.6992 210.2 62.6992 210.2 64.8992C210.2 68.3992 209.2 71.1992 207.1 73.1992C205 75.1992 201.8 76.1992 197.4 76.1992ZM252.4 111.999C257.2 111.999 261.4 110.899 265 108.699C268.6 106.499 271.3 103.399 273.2 99.4992C275.1 95.5992 276 91.1992 276 86.2992V85.2992C276 80.3992 275.1 75.9992 273.2 72.0992C271.3 68.1992 268.6 65.0992 265 62.8992C261.4 60.6992 257.2 59.5992 252.3 59.5992C247.5 59.5992 243.3 60.6992 239.8 62.8992C236.2 65.0992 233.5 68.1992 231.6 72.0992C229.7 75.9992 228.8 80.3992 228.8 85.2992V86.2992C228.8 91.1992 229.7 95.5992 231.6 99.4992C233.5 103.399 236.2 106.499 239.8 108.699C243.4 110.899 247.6 111.999 252.4 111.999ZM252.4 102.599C248.4 102.599 245.4 101.099 243.4 97.9992C241.4 94.8992 240.4 90.9992 240.4 86.1992V85.1992C240.4 82.0992 240.8 79.3992 241.7 76.8992C242.6 74.3992 243.9 72.3992 245.7 70.9992C247.5 69.4992 249.7 68.7992 252.3 68.7992C255 68.7992 257.2 69.4992 259 70.9992C260.8 72.4992 262.1 74.3992 263 76.8992C263.9 79.3992 264.3 82.0992 264.3 85.1992V86.1992C264.3 89.2992 263.9 92.0992 263 94.4992C262.1 96.9992 260.8 98.8992 259 100.399C257.3 101.899 255 102.599 252.4 102.599ZM297.8 111.099V39.1992H286.2V111.099H297.8ZM314.5 131.499C318.9 131.499 322.3 130.199 324.7 127.699C327.1 125.199 328.9 122.199 330.2 118.699L350.4 60.3992H338L327.8 94.3992L317.3 60.3992H304.7L322.5 110.799L320.9 115.099C320.1 117.599 318.9 119.299 317.5 120.299C316 121.299 313.9 121.799 311.2 121.799L309 121.699V130.599C311.2 131.199 313 131.499 314.5 131.499ZM368.4 111.099V74.4992C370.3 70.8992 373.4 68.9992 377.9 68.9992C380.8 68.9992 383.1 69.6992 384.6 71.1992C386.1 72.6992 386.9 75.0992 386.9 78.4992V111.199H398.5V77.4992V76.3992C399.2 74.1992 400.3 72.3992 402 71.0992C403.6 69.7992 405.7 69.0992 408.1 69.0992C411.1 69.0992 413.3 69.7992 414.8 71.0992C416.3 72.4992 417 74.8992 417 78.2992V111.099H428.6V78.3992C428.6 71.8992 427.2 67.0992 424.3 64.0992C421.5 61.0992 417.4 59.5992 412 59.5992C408.6 59.5992 405.6 60.2992 403 61.5992C400.4 62.9992 398.2 64.8992 396.5 67.2992C395.2 64.6992 393.4 62.6992 391 61.4992C388.6 60.1992 385.9 59.5992 382.7 59.5992C379.6 59.5992 376.8 60.0992 374.3 61.1992C371.9 62.2992 369.8 63.7992 368.1 65.8992L367.7 60.5992H356.8V111.199H368.4V111.099ZM455.7 111.999C458.5 111.999 461 111.499 463.2 110.499C465.4 109.499 467.3 108.099 468.9 106.399C469.3 108.499 469.7 109.999 470.2 111.099H482.1V110.299C480.8 107.599 480.2 103.899 480.2 99.2992V76.9992C480.2 73.1992 479.4 69.9992 477.7 67.3992C476 64.7992 473.7 62.7992 470.8 61.4992C467.8 60.1992 464.4 59.4992 460.6 59.4992C456.5 59.4992 452.8 60.1992 449.6 61.6992C446.4 63.1992 443.9 65.0992 442.2 67.4992C440.5 69.8992 439.6 72.3992 439.6 75.0992H451.2C451.2 73.7992 451.6 72.6992 452.3 71.5992C453 70.5992 454 69.7992 455.3 69.1992C456.6 68.5992 458.1 68.2992 459.8 68.2992C462.7 68.2992 464.8 69.0992 466.3 70.5992C467.8 72.0992 468.5 74.1992 468.5 76.8992V80.1992H461.5C454.1 80.1992 448.5 81.5992 444.4 84.4992C440.4 87.3992 438.4 91.4992 438.4 96.8992C438.4 99.7992 439.1 102.399 440.6 104.699C442.1 106.999 444.1 108.799 446.7 110.099C449.4 111.399 452.3 111.999 455.7 111.999ZM457.9 102.699C455.4 102.699 453.5 102.099 452.1 100.799C450.7 99.4992 450 97.7992 450 95.7992C450 93.0992 451 91.0992 453.1 89.5992C455.2 88.0992 458.3 87.3992 462.3 87.3992H468.4V96.7992C467.5 98.3992 466.1 99.7992 464.3 100.999C462.5 102.199 460.3 102.699 457.9 102.699ZM503.5 111.099V76.5992C505.3 72.6992 508.8 70.7992 514 70.7992C515.5 70.7992 517.1 70.8992 518.6 71.1992L518.7 60.1992C518.3 59.9992 517.7 59.8992 516.9 59.7992C516.1 59.6992 515.3 59.5992 514.7 59.5992C512.2 59.5992 510 60.1992 508.1 61.2992C506.2 62.4992 504.6 64.0992 503.3 66.1992L503 60.4992H491.9V111.099H503.5ZM537.4 111.099V94.6992L542.5 89.4992L557.2 111.099H570.7L550 81.4992L568.8 60.3992H554.8L541 76.0992L537.5 80.3992V39.1992H525.9V111.099H537.4ZM598.2 111.999C602.8 111.999 606.8 111.099 610.1 109.299C613.4 107.499 615.9 105.199 617.8 102.499L611.6 96.4992C608.4 100.599 604.2 102.699 599 102.699C596.4 102.699 594.2 102.099 592.3 100.999C590.4 99.8992 588.9 98.2992 587.7 96.2992C586.6 94.2992 585.9 91.9992 585.7 89.3992H618.7V84.4992C618.7 79.4992 617.9 75.1992 616.3 71.3992C614.7 67.5992 612.3 64.6992 609 62.5992C605.8 60.4992 601.7 59.4992 597 59.4992C592.6 59.4992 588.7 60.5992 585.2 62.6992C581.7 64.8992 579 67.8992 577 71.7992C575 75.6992 574 80.2992 574 85.4992V87.3992C574 91.9992 575 96.1992 576.9 99.8992C578.9 103.599 581.7 106.499 585.4 108.699C589 110.899 593.3 111.999 598.2 111.999ZM607.1 80.9992H585.9C586.4 77.1992 587.6 74.1992 589.5 72.0992C591.4 69.9992 593.8 68.8992 596.9 68.8992C600.3 68.8992 602.9 69.9992 604.5 72.0992C606.1 74.1992 607 76.8992 607.2 80.1992V80.9992H607.1ZM643.4 111.999C646.2 111.999 648.7 111.599 651 110.899V101.899C649.6 102.199 648.3 102.399 647 102.399C645.3 102.399 643.9 101.999 643.1 101.299C642.2 100.499 641.8 99.0992 641.8 96.9992V69.1992H650.7V60.5992H641.8V48.2992H630.2V60.5992H622V69.1992H630.2V97.7992C630.2 102.799 631.4 106.399 633.8 108.699C636.1 110.899 639.3 111.999 643.4 111.999Z" fill="white"/>
<path d="M122.2 154.199L0.100098 119.299V35.5992L122.2 0.699219V154.199ZM110.4 87.1992L20.6001 112.799L110.4 138.399V87.1992ZM11.9001 51.7992V103.099L101.7 77.4992L11.9001 51.7992ZM110.4 16.2992L20.6001 41.9992L110.4 67.5992V16.2992Z" fill="white"/>
</svg>
